<svg id="visual" viewBox="0 0 960 540" width="960" height="540"
    xmlns="http://www.w3.org/2000/svg"
    xmlns:xlink="http://www.w3.org/1999/xlink" version="1.1">
    <path d="M0 331L14.5 327.3C29 323.7 58 316.3 87.2 310.8C116.3 305.3 145.7 301.7 174.8 300.3C204 299 233 300 262 313C291 326 320 351 349 353.3C378 355.7 407 335.3 436.2 328.8C465.3 322.3 494.7 329.7 523.8 329.7C553 329.7 582 322.3 611 324C640 325.7 669 336.3 698 332C727 327.7 756 308.3 785.2 311.3C814.3 314.3 843.7 339.7 872.8 345.8C902 352 931 339 945.5 332.5L960 326L960 541L945.5 541C931 541 902 541 872.8 541C843.7 541 814.3 541 785.2 541C756 541 727 541 698 541C669 541 640 541 611 541C582 541 553 541 523.8 541C494.7 541 465.3 541 436.2 541C407 541 378 541 349 541C320 541 291 541 262 541C233 541 204 541 174.8 541C145.7 541 116.3 541 87.2 541C58 541 29 541 14.5 541L0 541Z" fill="#fa7268"></path>
    <path d="M0 375L14.5 373.5C29 372 58 369 87.2 366.2C116.3 363.3 145.7 360.7 174.8 355.8C204 351 233 344 262 341.7C291 339.3 320 341.7 349 345.2C378 348.7 407 353.3 436.2 362.8C465.3 372.3 494.7 386.7 523.8 379.8C553 373 582 345 611 336.2C640 327.3 669 337.7 698 348.5C727 359.3 756 370.7 785.2 373C814.3 375.3 843.7 368.7 872.8 358.5C902 348.3 931 334.7 945.5 327.8L960 321L960 541L945.5 541C931 541 902 541 872.8 541C843.7 541 814.3 541 785.2 541C756 541 727 541 698 541C669 541 640 541 611 541C582 541 553 541 523.8 541C494.7 541 465.3 541 436.2 541C407 541 378 541 349 541C320 541 291 541 262 541C233 541 204 541 174.8 541C145.7 541 116.3 541 87.2 541C58 541 29 541 14.5 541L0 541Z" fill="#ef5f67"></path>
    <path d="M0 443L14.5 437.8C29 432.7 58 422.3 87.2 412.3C116.3 402.3 145.7 392.7 174.8 385.8C204 379 233 375 262 385.2C291 395.3 320 419.7 349 429C378 438.3 407 432.7 436.2 420C465.3 407.3 494.7 387.7 523.8 380.8C553 374 582 380 611 381.3C640 382.7 669 379.3 698 386.3C727 393.3 756 410.7 785.2 418.7C814.3 426.7 843.7 425.3 872.8 423.5C902 421.7 931 419.3 945.5 418.2L960 417L960 541L945.5 541C931 541 902 541 872.8 541C843.7 541 814.3 541 785.2 541C756 541 727 541 698 541C669 541 640 541 611 541C582 541 553 541 523.8 541C494.7 541 465.3 541 436.2 541C407 541 378 541 349 541C320 541 291 541 262 541C233 541 204 541 174.8 541C145.7 541 116.3 541 87.2 541C58 541 29 541 14.5 541L0 541Z" fill="#e34c67"></path>
    <path d="M0 455L14.5 450.5C29 446 58 437 87.2 436.7C116.3 436.3 145.7 444.7 174.8 453C204 461.3 233 469.7 262 467.8C291 466 320 454 349 450C378 446 407 450 436.2 456C465.3 462 494.7 470 523.8 463.2C553 456.3 582 434.7 611 426.7C640 418.7 669 424.3 698 434.2C727 444 756 458 785.2 456.2C814.3 454.3 843.7 436.7 872.8 437.3C902 438 931 457 945.5 466.5L960 476L960 541L945.5 541C931 541 902 541 872.8 541C843.7 541 814.3 541 785.2 541C756 541 727 541 698 541C669 541 640 541 611 541C582 541 553 541 523.8 541C494.7 541 465.3 541 436.2 541C407 541 378 541 349 541C320 541 291 541 262 541C233 541 204 541 174.8 541C145.7 541 116.3 541 87.2 541C58 541 29 541 14.5 541L0 541Z" fill="#d53867"></path>
    <path d="M0 471L14.5 477C29 483 58 495 87.2 497.3C116.3 499.7 145.7 492.3 174.8 492.2C204 492 233 499 262 501C291 503 320 500 349 498.5C378 497 407 497 436.2 491.3C465.3 485.7 494.7 474.3 523.8 471.2C553 468 582 473 611 473.3C640 473.7 669 469.3 698 473.5C727 477.7 756 490.3 785.2 498.2C814.3 506 843.7 509 872.8 501.7C902 494.3 931 476.7 945.5 467.8L960 459L960 541L945.5 541C931 541 902 541 872.8 541C843.7 541 814.3 541 785.2 541C756 541 727 541 698 541C669 541 640 541 611 541C582 541 553 541 523.8 541C494.7 541 465.3 541 436.2 541C407 541 378 541 349 541C320 541 291 541 262 541C233 541 204 541 174.8 541C145.7 541 116.3 541 87.2 541C58 541 29 541 14.5 541L0 541Z" fill="#c62368"></path>
</svg>
